<?xml version="1.0" encoding="UTF-8"?>
<svg id="Capa_1" xmlns="http://www.w3.org/2000/svg" version="1.1" viewBox="0 0 3122.56 543.28">
  <!-- Generator: Adobe Illustrator 30.6.0, SVG Export Plug-In . SVG Version: 2.1.4 Build 109)  -->
  <defs>
    <style>
      .st0 {
        fill: #a78b50;
      }
    </style>
  </defs>
  <g>
    <g>
      <path class="st0" d="M1184.85,350.28h-35.7v88.31h35.32c25.99,0,45.79-19.05,45.79-44.15s-19.68-44.15-45.41-44.15ZM1184.98,429.25h-25.74v-69.64h25.36c19.81,0,35.45,15.01,35.45,34.94s-15.39,34.69-35.07,34.69Z"/>
      <polygon class="st0" points="1296.62 398.47 1341.16 398.47 1341.16 389.26 1296.62 389.26 1296.62 359.62 1346.45 359.62 1346.45 350.28 1286.53 350.28 1286.53 438.59 1348.09 438.59 1348.09 429.25 1296.62 429.25 1296.62 398.47"/>
      <path class="st0" d="M1474.88,379.93c0-18.8-12.74-29.65-34.82-29.65h-33.56v88.31h10.09v-28.01h23.46c2.02,0,3.91-.13,5.68-.25l18.54,28.26h11.48l-20.82-30.15c12.74-4.04,19.93-14,19.93-28.51ZM1440.06,401.25h-23.46v-41.63h23.46c16.02,0,25.1,7.06,25.1,20.56s-9.08,21.07-25.1,21.07Z"/>
      <polygon class="st0" points="1580.34 414.37 1548.05 350.28 1535.56 350.28 1535.56 438.59 1545.15 438.59 1545.15 365.17 1577.19 429.25 1583.24 429.25 1615.41 365.17 1615.54 438.59 1624.87 438.59 1624.87 350.28 1612.51 350.28 1580.34 414.37"/>
      <path class="st0" d="M1716.34,350.28l-39.61,88.31h10.72l9.84-22.58h48.06l9.97,22.58h10.98l-39.49-88.31h-10.47ZM1701.45,406.67l19.81-45.42,20.06,45.42h-39.86Z"/>
      <polygon class="st0" points="1797.71 359.62 1826.47 359.62 1826.47 438.59 1836.56 438.59 1836.56 359.62 1865.45 359.62 1865.45 350.28 1797.71 350.28 1797.71 359.62"/>
      <path class="st0" d="M1950.23,350.03c-25.86,0-46.3,19.55-46.3,44.41s20.44,44.53,46.3,44.53,46.17-19.68,46.17-44.53-20.44-44.41-46.17-44.41ZM1950.23,429.76c-19.68,0-36.08-15.77-36.08-35.32s16.4-35.07,36.08-35.07,35.83,15.52,35.83,35.07-16.15,35.32-35.83,35.32Z"/>
      <polygon class="st0" points="2062.76 350.28 2052.67 350.28 2052.67 438.59 2101.49 438.59 2101.49 429.25 2062.76 429.25 2062.76 350.28"/>
      <path class="st0" d="M2193.71,350.03c-25.86,0-46.3,19.55-46.3,44.41s20.44,44.53,46.3,44.53,46.17-19.68,46.17-44.53-20.44-44.41-46.17-44.41ZM2193.71,429.76c-19.68,0-36.08-15.77-36.08-35.32s16.4-35.07,36.08-35.07,35.83,15.52,35.83,35.07-16.15,35.32-35.83,35.32Z"/>
      <path class="st0" d="M2332.22,359.24c9.84,0,19.55,3.78,26.74,10.22l5.8-7.32c-8.45-7.44-20.31-12.11-32.55-12.11-25.99,0-46.55,19.55-46.55,44.41s20.44,44.53,46.05,44.53c11.86,0,24.1-4.54,32.8-11.48v-32.04h-8.96v26.87c-6.81,4.67-15.26,7.44-23.21,7.44-20.18,0-36.46-15.64-36.46-35.32s16.15-35.2,36.33-35.2Z"/>
      <rect class="st0" x="2426.84" y="350.28" width="10.09" height="88.31"/>
      <polygon class="st0" points="2425.2 339.05 2434.66 339.05 2450.3 326.57 2440.34 322.02 2425.2 339.05"/>
      <path class="st0" d="M2528.27,350.28l-39.61,88.31h10.72l9.84-22.58h48.06l9.97,22.58h10.98l-39.49-88.31h-10.47ZM2513.38,406.67l19.81-45.42,20.06,45.42h-39.86Z"/>
    </g>
    <g>
      <polygon class="st0" points="890.53 138.14 898.31 138.14 931.24 104.32 904.77 104.32 890.53 138.14"/>
      <path class="st0" d="M636.73,149.19l-.09.03c-6.67,2.86-12,6.32-16.26,10.57-4.92,4.13-9.02,10.56-11.54,18.12-2.75,8.24-4.03,16.43-4.03,25.75s1.39,17.85,4.03,25.75l.07.18c3.68,8.27,6.98,13.45,11.4,17.87,4.28,4.28,9.62,7.75,16.33,10.63,5.18,2.22,11.35,3.3,18.84,3.3h49.88v-7.14h-29.47c-5.28,0-10.65-.77-15.94-2.28-5.27-1.51-10.39-4.47-14.05-8.13-3.07-3.07-7.25-8.29-9.75-15.77-2.45-6.53-3.8-15.2-3.8-24.42,0-8.52,1.32-16.99,3.82-24.49,2.23-6.7,5.22-11.96,8.87-15.64,5.27-4.38,9.62-6.91,14.11-8.19l.24-.08c4.81-2.06,9.89-2.98,16.48-2.98h29.47v-6.35h-49.88c-7.04,0-12.65.98-18.76,3.27Z"/>
      <polygon class="st0" points="779.5 145.14 751.17 145.14 751.17 262.17 836.02 262.17 836.02 255.04 779.5 255.04 779.5 145.14"/>
      <rect class="st0" x="882.05" y="145.14" width="27.55" height="117.82"/>
      <polygon class="st0" points="1052.06 247.78 994.78 145.14 967.38 145.14 967.28 144.95 967.28 145.14 964.14 145.14 964.14 262.96 971.27 262.96 971.27 160.31 1028.55 262.96 1055.95 262.96 1056.06 263.15 1056.06 262.96 1059.2 262.96 1059.2 145.14 1052.06 145.14 1052.06 247.78"/>
      <rect class="st0" x="1113.6" y="145.14" width="27.55" height="117.82"/>
      <path class="st0" d="M1293.1,254.25h-29.47c-5.28,0-10.65-.77-15.94-2.28-5.27-1.51-10.39-4.47-14.05-8.13-3.07-3.07-7.25-8.29-9.75-15.77-2.45-6.53-3.8-15.2-3.8-24.42,0-8.52,1.32-16.99,3.82-24.49,2.23-6.7,5.22-11.96,8.87-15.64,5.27-4.38,9.62-6.91,14.11-8.19l.24-.08c4.81-2.06,9.89-2.98,16.48-2.98h29.47v-6.35h-49.88c-7.04,0-12.65.98-18.76,3.27l-.09.03c-6.68,2.86-12,6.32-16.26,10.57-4.92,4.13-9.02,10.56-11.54,18.12-2.75,8.24-4.03,16.43-4.03,25.75s1.39,17.85,4.03,25.75l.07.18c3.68,8.27,6.98,13.45,11.4,17.87,4.28,4.28,9.62,7.75,16.33,10.63,5.18,2.22,11.35,3.3,18.84,3.3h49.88v-7.14Z"/>
      <path class="st0" d="M1656.98,254.25h-29.47c-5.28,0-10.65-.77-15.94-2.28-5.27-1.51-10.39-4.47-14.05-8.13-3.07-3.07-7.25-8.29-9.75-15.77-2.45-6.53-3.8-15.2-3.8-24.42,0-8.52,1.32-16.99,3.82-24.49,2.23-6.7,5.22-11.96,8.87-15.64,5.27-4.38,9.62-6.91,14.11-8.19l.24-.08c4.81-2.06,9.89-2.98,16.48-2.98h29.47v-6.35h-49.88c-7.04,0-12.65.98-18.76,3.27l-.09.03c-6.68,2.86-12,6.32-16.26,10.57-4.92,4.13-9.02,10.56-11.54,18.12-2.75,8.24-4.03,16.43-4.03,25.75s1.39,17.85,4.03,25.75l.07.18c3.68,8.27,6.98,13.45,11.4,17.87,4.28,4.28,9.62,7.75,16.33,10.63,5.18,2.22,11.35,3.3,18.84,3.3h49.88v-7.14Z"/>
      <path class="st0" d="M1401.44,262.17h30.07l-35.76-117.04h-29.65l-35.75,117.82h8.09l13.35-43.18h36.31l13.35,42.39ZM1353.81,211.86l16.13-52.44,16.13,52.44h-32.27Z"/>
      <path class="st0" d="M1810.16,236.8c4.78-8.77,7.31-19.95,7.31-32.36s-2.39-23.34-7.31-32.36c-5.26-9.64-11.94-16.58-20.35-21.17-8.13-4.88-18.51-7.35-30.86-7.35s-22.68,2.46-31.57,7.31c-8.48,4.63-15.16,11.56-20.42,21.21-4.78,8.77-7.31,19.96-7.31,32.36s2.39,23.34,7.28,32.29c4.74,9.49,11.24,16.25,20.46,21.27,8.89,4.85,19.51,7.31,31.57,7.31s21.65-2.32,30.79-7.31c8.48-4.63,15.16-11.56,20.42-21.21ZM1782.16,235.27l-.05.18c-1.45,7.24-4.22,12.36-8.74,16.13-4.29,3.57-8.47,5.03-14.42,5.03s-11.03-1.65-14.29-4.91l-.17-.15c-3.33-2.66-6.36-8.3-8.75-16.28-2.08-6.95-3.06-16.99-3.06-31.61s.97-24.66,3.06-31.61c2.4-7.99,5.42-13.62,8.75-16.28l.17-.15c3.26-3.26,8.06-4.91,14.29-4.91,5.56,0,10.41,1.69,14.45,5.06,3.33,2.66,6.36,8.3,8.75,16.28,2.08,6.95,3.06,16.99,3.06,31.61s-.97,24.66-3.06,31.61Z"/>
      <polygon class="st0" points="1960.14 262.96 1960.25 263.15 1960.25 262.96 1963.39 262.96 1963.39 145.14 1956.25 145.14 1956.25 247.78 1898.98 145.14 1871.58 145.14 1871.47 144.95 1871.47 145.14 1868.33 145.14 1868.33 262.96 1875.47 262.96 1875.47 160.31 1932.74 262.96 1960.14 262.96"/>
      <path class="st0" d="M2079.09,193.85l-18.83-4.71c-6.41-1.42-10.97-3.56-13.94-6.53-2.74-2.74-4.13-7.02-4.13-12.72,0-6.01,1.81-10.38,5.53-13.35,3.64-2.91,7.99-4.27,13.67-4.27h37.32v-7.14h-49.1c-6.27,0-12.86,1.5-18.11,4.11-5.64,2.43-10.04,6.55-12.72,11.91-2.74,5.49-4.14,11.33-4.14,17.38,0,9.31,2.18,16.88,6.65,23.14,4.36,6.1,11.29,10.18,20.04,11.78l18.83,4.71c6.41,1.42,10.97,3.56,13.94,6.53,2.74,2.74,4.12,7.02,4.12,12.72,0,6.01-1.81,10.38-5.53,13.35-3.64,2.91-7.99,4.27-13.67,4.27h-41.25v7.14h53.03c6.27,0,12.86-1.5,18.11-4.11,5.64-2.43,10.04-6.55,12.72-11.91,2.74-5.49,4.14-11.34,4.14-17.38,0-10.6-2.07-17.77-6.7-23.21-4.36-6.06-11.27-10.11-19.99-11.71Z"/>
      <rect class="st0" x="2155.6" y="145.14" width="27.55" height="117.82"/>
      <path class="st0" d="M2292.6,250.77c-3.64,2.91-7.99,4.27-13.67,4.27h-41.25v7.14h53.02c6.27,0,12.86-1.5,18.11-4.11,5.64-2.43,10.04-6.55,12.72-11.91,2.74-5.49,4.14-11.34,4.14-17.38,0-10.6-2.07-17.77-6.7-23.21-4.36-6.06-11.27-10.11-19.99-11.71l-18.83-4.71c-6.41-1.42-10.97-3.56-13.94-6.53-2.74-2.74-4.12-7.02-4.12-12.72,0-6.01,1.81-10.38,5.53-13.35,3.64-2.91,7.99-4.27,13.67-4.27h37.32v-7.14h-49.1c-6.27,0-12.86,1.5-18.11,4.11-5.64,2.43-10.04,6.55-12.72,11.91-2.74,5.49-4.14,11.34-4.14,17.38,0,9.3,2.18,16.87,6.65,23.14,4.36,6.1,11.29,10.18,20.05,11.78l18.83,4.71c6.41,1.42,10.97,3.56,13.94,6.53,2.74,2.74,4.12,7.02,4.12,12.72,0,6.01-1.81,10.38-5.53,13.35Z"/>
      <polygon class="st0" points="2366.86 152.27 2399.83 152.27 2399.83 262.96 2428.16 262.96 2428.16 152.27 2460.34 152.27 2460.34 145.14 2366.86 145.14 2366.86 152.27"/>
      <path class="st0" d="M2594.32,150.92c-8.13-4.88-18.51-7.35-30.86-7.35s-22.68,2.46-31.57,7.31c-8.48,4.63-15.16,11.56-20.42,21.21-4.78,8.77-7.31,19.96-7.31,32.36s2.39,23.34,7.28,32.29c4.74,9.49,11.24,16.25,20.46,21.27,8.89,4.85,19.51,7.31,31.57,7.31s21.65-2.32,30.79-7.31c8.48-4.63,15.16-11.56,20.42-21.21,4.78-8.77,7.31-19.96,7.31-32.36s-2.39-23.34-7.31-32.36c-5.26-9.64-11.94-16.58-20.35-21.17ZM2586.67,235.27l-.05.18c-1.45,7.24-4.23,12.36-8.74,16.13-4.29,3.57-8.47,5.03-14.42,5.03s-11.03-1.65-14.29-4.91l-.17-.15c-3.33-2.66-6.36-8.3-8.75-16.28-2.08-6.95-3.06-17-3.06-31.61s.97-24.66,3.06-31.61c2.4-7.99,5.42-13.62,8.75-16.28l.17-.15c3.26-3.26,8.06-4.91,14.29-4.91s10.13,1.46,14.45,5.06c3.33,2.66,6.36,8.3,8.75,16.28,2.08,6.95,3.06,16.99,3.06,31.61s-.97,24.66-3.06,31.61Z"/>
      <path class="st0" d="M2760.57,203.08c3.35-5.86,4.97-12.6,4.97-20.62,0-13.46-3.49-22.44-10.98-28.27-7.62-5.92-17.54-9.06-28.7-9.06h-53.03v117.82h27.55v-43.18h19.54l21.98,43.18h31.15l-24.16-48.32c4.72-2.87,8.56-6.11,11.67-11.56ZM2733.5,200.41c-2.18,4.35-4.96,7.14-9.31,9.31-4,2-8.2,2.93-13.24,2.93h-9.78v-61.16h10.56c3.12,0,8.96.37,13.1,2.86,3.87,2.32,6.62,5.3,8.66,9.39,2.36,4.72,3.71,11.55,3.71,18.73s-1.28,13.09-3.71,17.95Z"/>
      <rect class="st0" x="2818.6" y="145.14" width="27.55" height="117.82"/>
      <path class="st0" d="M2956.54,144.35h-29.43l-35.75,117.82h8.11l12.56-42.39h37.04l12.56,43.18h30.08l-35.17-118.61ZM2914.81,211.86l16.13-52.44,16.13,52.44h-32.27Z"/>
      <polygon class="st0" points="3066.04 255.04 3066.04 145.14 3038.49 145.14 3038.49 262.17 3122.56 262.17 3122.56 255.04 3066.04 255.04"/>
    </g>
  </g>
  <path class="st0" d="M271.64,543.28c149.9,0,271.64-121.75,271.64-271.64,0-49.26-12.67-95-35.89-135.12l39.41-67.56c-33.78-14.07-70.37-21.82-106.97-21.82-4.22,0-9.85,0-14.07.7C382.13,17.59,329.35,0,271.64,0s-109.78,17.59-154.12,47.85h-11.96c-38,0-73.19,7.74-105.56,21.11l38,65.45C14.07,175.23,0,221.68,0,271.64c0,149.19,121.75,271.64,271.64,271.64ZM173.82,354.68c-1.41-10.56-2.11-21.11-2.11-32.37,0-84.45,40.11-160.45,101.34-209.71,61.93,49.26,101.34,125.26,101.34,209.71,0,10.56-.7,21.11-1.41,30.96l-100.63,171.71-98.52-170.3ZM262.49,522.17c-44.34-39.41-74.6-91.49-85.86-148.49l85.86,148.49ZM367.35,377.2c-11.26,55.6-40.82,106.26-83.04,144.27l83.04-144.27ZM535.54,270.94c0,142.15-114.01,258.97-254.75,263.9,52.78-43.63,90.08-106.26,98.52-178.04l123.15-213.23c21.11,38,33.08,81.63,33.08,127.38ZM439.83,53.48c33.08,0,64.74,6.33,95,17.59l-32.37,56.3c-18.3-28.15-41.52-53.48-68.26-73.89h5.63ZM497.54,135.82l-116.82,201.27c0-4.22.7-9.85.7-14.07-.7-87.26-40.82-164.67-103.45-214.64,40.82-30.96,90.78-49.97,144.27-53.48,30.26,21.11,56.3,49.26,75.3,80.93ZM271.64,7.04c52.08,0,99.93,14.78,141.45,41.52-52.78,5.63-101.34,24.63-140.04,54.89-40.11-30.96-88.67-50.67-142.15-54.89C171.01,21.82,219.57,7.04,271.64,7.04ZM121.75,54.19c54.19,2.81,104.86,22.52,145.67,53.48-62.63,50.67-102.75,127.38-102.75,213.94,0,6.33,0,12.67.7,19L46.45,134.41c19-31.67,45.04-59.11,75.3-80.23ZM9.85,71.78c30.96-11.96,62.63-18.3,95.71-18.3h2.81c-26.74,20.41-49.97,44.34-66.85,73.19l-31.67-54.89ZM42.22,140.75l124.56,215.34c9.15,71.78,45.04,134.41,98.52,178.05C123.15,532.02,7.74,414.5,7.74,270.94c0-47.85,12.67-92.19,34.48-130.19Z"/>
</svg>